<?xml version="1.0" encoding="UTF-8"?>
<svg id="Ebene_1" data-name="Ebene 1" xmlns="http://www.w3.org/2000/svg" viewBox="0 0 612 630.98165">
  <defs>
    <style>
      .cls-1 {
        fill: #fff;
        stroke-width: 0px;
      }
    </style>
  </defs>
  <path class="cls-1" d="m50.88776,527.36468c.1583-.8393.27767-1.68838.48408-2.51567.30417-1.21922.61078-2.44383,1.0275-3.62708.39081-1.10965,1.00934-2.14073,1.38122-3.25518.90031-2.69801,1.71395-5.42491,2.56825-8.1384.04704-.14941.10958-.34406.22672-.41373,1.93286-1.14903,1.92268-3.25167,2.27264-5.04646.61818-3.17046,1.94725-6.04132,3.19342-8.96269.11876-.27838.21136-.56783.42663-1.15225h-9.19674c.55177-5.87881,4.26385-10.34785,5.21018-15.99721,2.58678,0,4.97347-.12914,7.3384.0421,1.79459.12996,2.88354-.56567,3.56121-2.0976.41768-.94421,1.13254-1.95715,1.05417-2.8834-.24371-2.8805,1.64105-4.94005,2.52817-7.36329.86948-2.37501,2.02636-4.65435,3.18317-6.91103.68311-1.33266,1.46057-2.67879,2.46694-3.76823,1.25437-1.35797,1.64336-3.05813,2.36801-4.62974,1.37453-2.98105,3.32612-5.56557,5.37615-8.10842,2.53326-3.14218,5.35077-6.0444,7.55501-9.47343,1.31722-2.04912,3.16597-3.75153,4.71128-5.66193.53247-.65824.82685-1.50323,1.30371-2.21335,1.95123-2.9057,4.38729-6.28249,8.52962-5.86302,1.97959.20045,3.99793-.01605,5.99566.04945,1.78358.05845,3.43134-.28535,5.12573-.88737,3.94976-1.40341,8.01486-2.48268,11.96222-3.89213,3.04924-1.08873,6.18023-1.30905,9.34566-1.47759.23956-.01274.51252.0561.71449-.03539,3.52077-1.59507,7.24668-.75841,10.88216-.89921,2.95537-.11443,5.91892-.04046,8.87842-.00973.70773.00735,1.55159-.04005,2.09542.30835,1.80861,1.15869,3.77293,1.14624,5.78023,1.12468,2.55956-.02748,5.11961-.00917,7.67946-.00401.55941.00111,1.16555-.10544,1.67036.06876,2.72936.94204,5.35262-.1805,8.02225-.32903.71271-.03964,1.475-.30158,2.1263-.12882,2.2314.59186,4.39183.31869,6.62509-.03416,3.99396-.631,8.04321-.91518,12.03388-1.56296,4.0526-.65783,8.15612-1.27122,12.06829-2.46024,5.50734-1.67382,11.21589-2.81415,16.31201-5.78275,1.23727-.72076,2.60253-1.22403,3.46054-2.37789,1.19323-1.60465,2.06621-3.23503,1.37885-5.50267-.66006-2.17749-.95757-4.53461-.98136-6.81734-.02886-2.76836-1.55359-4.98947-2.2257-7.5091-.50499-1.89308-1.65589-3.62907-2.04859-5.53211-.32057-1.55338-1.06071-2.75201-1.74972-4.09275-.97031-1.88807-1.5075-4.00026-2.20874-6.02392-.15398-.44441-.09321-1.00743-.34427-1.36723-2.97141-4.25866-3.50437-9.51881-5.8148-14.05588-1.18588-2.32873-2.14395-4.7928-2.99338-7.26831-.94686-2.75945-1.63913-5.60562-2.47127-8.40541-.36218-1.21852-.80534-2.41278-1.19602-3.62309-.3662-1.13461-.90196-2.25563-1.02623-3.4186-.25122-2.35093-.27413-4.72621-.40332-7.3366h6.35264c.61821-3.13905.89197-6.0037.26013-8.96703-.34286-1.60817-.02202-3.34896-.09545-5.02577-.08344-1.9048-.31358-3.80306-.40128-5.70778-.05492-1.19259-.12681-2.4223.09107-3.58234.62074-3.30481.62682-6.59556.1441-10.19908h-6.60291c.18757-1.62958.3705-2.93992.48286-4.25629.2014-2.35919.24255-4.73834.56659-7.07922.41259-2.98064,1.05695-5.92862,1.56805-8.89642.30949-1.79722.21826-3.74705.90295-5.37818,1.30531-3.10952.54236-6.45485,1.61622-9.60939,1.19107-3.49879,1.56775-7.26794,2.63762-10.81731.69765-2.31446.78062-4.68624,1.30837-6.99901.2174-.95268-.1933-1.53561-1.07716-1.83928-1.802-.61912-3.59509-1.26662-5.41132-1.8409-1.06008-.33517-2.11818-.49989-2.85608-1.54941-.75526-1.07422-2.00063-1.37482-3.23252-.98902-1.60749.50338-2.98316.12955-4.31441-.74282-.20004-.13112-.42155-.34207-.62687-.33497-1.83122.06341-2.94444-1.40672-4.44446-2.04052-1.54213-.65161-3.20772-1.11437-4.59574-2.00726-3.66475-2.35744-7.96833-3.68523-11.09761-6.91679-.53117-.54853-1.36373-.80146-2.04818-1.20598-3.2697-1.93241-6.59777-3.77555-9.7787-5.84474-1.64535-1.0703-3.03909-2.53205-4.52063-3.8461-.35219-.31235-.5222-.90895-.90933-1.09043-2.84785-1.33508-4.96223-3.66087-7.47107-5.44892-1.01664-.72457-1.92654-1.60077-2.87114-2.42387-.59859-.5216-1.18708-1.0568-1.75267-1.61375-1.06331-1.0471-2.10708-2.11404-3.15816-3.17355-.16815-.1695-.30046-.41164-.50256-.50486-3.37623-1.55735-5.20965-4.70563-7.56913-7.31038-.05358-.05917-.10463-.15264-.16937-.1651-2.93685-.56536-3.88671-3.36682-5.58795-5.22007-2.00614-2.18536-3.46282-4.88141-5.1122-7.38602-1.39466-2.11783-2.55778-4.41065-4.12562-6.38615-1.89813-2.39168-3.27401-5.0424-4.73472-7.68384-1.80671-3.26708-3.70614-6.46818-4.86248-10.05005-.21329-.6607-.84338-1.17637-1.13192-1.8253-.73637-1.6561-1.40044-3.3449-2.06784-5.03077-.23454-.59246-.34995-1.23318-.59639-1.81965-.98342-2.34027-1.77591-4.79827-3.05514-6.96729-1.61672-2.74131-1.88397-5.91806-3.2689-8.70311-.13718-.27587-.23303-.63603-.18482-.93033.40447-2.46915-1.01-4.61854-1.19534-6.97955-.00607-.0773-.06258-.15001-.07231-.22777-.06902-.55192-.37707-1.24294-.15628-1.63412,1.23731-2.19206.07178-4.54368.59006-6.75269.10178-.43381.46534-.85043.80257-1.17769,2.50342-2.42947,4.99185-4.74706,8.77373-5.19392,4.09351-.48369,8.06437.32673,12.07549.66827,1.38094.11758,2.73611.84309,4.04737,1.41791,4.42384,1.93928,8.9259,3.73879,13.19548,5.978,2.94124,1.54256,5.54431,3.72864,8.30384,5.61934,2.62739,1.80017,5.33075,3.49791,7.87875,5.40373,5.55003,4.15121,11.00766,8.42034,16.04223,13.20712,1.09018,1.03654,2.48513,1.74608,3.62391,2.73903,5.40965,4.71676,10.79862,9.45775,16.15453,14.23541,2.50137,2.23128,4.86202,4.62082,7.37301,6.84069,4.89896,4.33097,9.77609,8.69359,14.82382,12.84674,3.13404,2.5786,6.6012,4.74818,9.84957,7.19335,2.09929,1.58019,4.06912,3.33188,6.1044,4.99765,3.44469,2.81927,6.89524,5.63134,10.5013,8.57542.77215-.70028,1.29615-1.29012,1.92745-1.72376,1.24149-.85272,2.51589-1.66591,3.82722-2.40591,1.10209-.62194,2.38987-.96088,3.39676-1.69692,3.16175-2.31121,6.44978-4.37969,10.14345-5.71267,3.05967-1.10419,6.11686-2.26316,9.25744-3.08252,3.45062-.90024,6.99044-1.46596,10.50175-2.12214,1.24502-.23266,2.51832-.39996,3.7824-.42734,2.87845-.06237,5.76446-.13046,8.63785.00577,4.5279.21466,9.05117.55494,13.57019.91944,3.24733.2619,6.53281.41022,9.71223,1.05097,3.02825.6103,5.99386,1.65424,8.89279,2.7556,4.90929,1.86516,9.79411,3.76537,14.93795,4.91994.96908.21754,1.72541.18694,2.34525-.60857.68537-.87957,1.47964-1.70782,1.99316-2.68148,1.48497-2.81548,3.03944-5.56406,4.76465-8.25617,1.40614-2.19418,2.72628-4.45839,4.24231-6.60187,2.80313-3.96335,5.61458-7.92508,8.26496-11.99025,1.1628-1.78352,1.87858-3.85206,2.90391-5.73309,1.70499-3.12798,3.54223-6.1842,5.2295-9.32135.75029-1.39503,1.2588-2.91893,1.90163-4.37348.32112-.72668.6641-1.44791,1.0558-2.13835.82216-1.44923,1.73898-2.84699,2.51573-4.31925,1.3616-2.58096,2.64736-5.20193,3.96382-7.80668.14335-.28365.21352-.64045.42943-.84571,2.52554-2.40125,3.22855-5.82229,5.22939-9.02451h-6.88021c1.05349-1.97735,1.83996-3.48306,2.65984-4.97035.18999-.34468.62534-.58945.72519-.94305.94313-3.34005,3.3576-5.89803,4.74353-9.01786.99595-2.24208,2.45737-4.29208,3.85281-6.33083.3162-.46199,1.20938-.70033,1.85321-.73424,1.82898-.09634,3.66634-.0338,5.54506-.0338,2.13408-3.34978,4.37717-6.53089,6.25993-9.91263,2.32457-4.1752,5.1107-7.98382,7.88644-11.85769,3.06256-4.27413,6.80591-7.79289,10.356-11.54975.77259-.81761,1.53211-1.61522,2.81157-1.62561.43491-.00353.95364-.2536,1.28599-.55454,1.73206-1.56834,3.82803-1.35221,5.90275-1.31871.96126.01552,1.62575.40288,2.1726,1.22254,1.24761,1.86995,1.66729,3.7323,1.33972,6.07813-.4749,3.40082-2.55179,6.16554-3.15443,9.46633-.25559,1.3999-.73834,2.75689-1.07751,4.14325-.81425,3.32838-1.36922,6.74488-2.49414,9.96316-.65944,1.88651-1.36887,3.68727-1.27415,5.95733h-6.93089c-1.5629,3.13697-3.2333,5.93977-3.61603,9.29557-.12299,1.07818-.68361,2.10821-1.05727,3.15554-.39076,1.09519-.29851,2.07537.75753,2.73482,1.08085.67495,1.15155,1.42606.74241,2.62769-.39079,1.14761-.26997,2.46941-.38807,3.88245h6.57696c.04813,2.19655.0844,4.23733.13969,6.27759.06293,2.32316-2.03306,3.29788-3.14872,5.12874.52626,1.81566.19093,3.56764-1.37927,5.05048-.42167.39819-.74095,1.16419-.70685,1.73756.10705,1.80083-.5707,3.22936-1.65361,4.57739-.33908.42217-.56001.98518-.69296,1.51909-.58266,2.34046-1.72536,4.22769-3.83503,5.54938-1.01379.63513-1.40432,1.73255-1.78228,2.95739-.52149,1.68999-1.57509,3.28277-2.67499,4.70515-.81554,1.05465-1.51034,1.97129-1.448,3.38741.0293.66599-.17517,1.51008-.59443,1.99774-1.48032,1.72188-1.72497,3.84531-2.3555,5.89235-1.02812,3.33767-2.40982,6.56944-3.70937,9.81909-.5606,1.40184-1.25309,2.75508-1.94789,4.09822-1.38891,2.68489-2.86474,5.32542-4.22365,8.02506-1.71865,3.41437-3.39847,6.84977-5.01862,10.31185-1.95733,4.18258-4.01119,8.30385-6.55598,12.17163-1.75002,2.65987-3.45387,5.35356-5.07578,8.0929-.88573,1.49602-1.44768,3.18591-2.35328,4.66757-1.24228,2.03259-2.55806,4.04308-4.05607,5.88969-1.30925,1.61403-1.70508,3.12947-.69413,5.00891,1.831,3.40392,2.56955,7.17775,3.70132,10.83118,1.61587,5.216,2.20937,10.60011,3.27997,15.90306.44534,2.20603.76916,4.42143,2.83635,5.98463-.56364.62974-.9518,1.06342-1.31189,1.46573,1.6055,9.51081,4.42187,18.76442,5.05656,28.56395h7.16826c.2446,1.04968.53628,1.94971.65344,2.87186.32115,2.52718.52931,5.06884.85638,7.59514.35807,2.76569.71227,5.5368,1.22297,8.27668.90035,4.83027.69653,9.68032.63,14.84092h-6.93921c-.08291,1.03465-.24305,1.80062-.18806,2.55083.31315,4.27105-.62455,8.42196-1.12251,12.61699-.32848,2.7671-.55459,5.54658-.81179,8.32188-.45571,4.9167-.9162,9.83308-1.34303,14.75232-.22731,2.62-.46362,5.24292-.56388,7.86954-.21311,5.58315-.36665,11.16902-.48425,16.75503-.03146,1.49605-.76568,2.63546-1.70347,3.58943-1.27931,1.30131-2.68196,2.51312-4.17086,3.56667-1.22145.86429-1.85543,1.79707-1.85494,3.34703.00062,1.90506-.34986,3.80816-.40606,5.71627-.02218.75311.26452,1.54626.5417,2.27104.65019,1.70025,1.45301,3.34457,2.05243,5.06099.44241,1.26695.97764,2.16346,2.37493,2.71925,2.42637.96504,4.66451,2.39514,7.06956,3.42472,2.18828.9368,4.52646,1.51805,6.73947,2.40387,3.22849,1.29226,6.53111,2.28537,9.90093,3.14374,2.21995.56549,4.28403,1.71569,6.47556,2.42611,3.39235,1.09969,6.81294,2.12699,10.26043,3.03792,3.75086.99112,7.54323,1.82669,11.32409,2.70162.92748.21463,1.88078.31746,2.82203.47276,5.31775.87756,10.61958,1.87562,15.96021,2.57939,2.43806.32124,4.95259.05332,7.43228.07254.7171.00554,1.55022-.14127,2.1293.16342,1.96618,1.03459,4.05364.65449,6.10528.80994,3.64641.27636,7.32394.44335,10.91507,1.07388,4.60226.80813,9.03444,2.30708,13.39898,4.03518,3.12686,1.23809,6.07815,2.74061,9.03365,4.32487,2.52689,1.35457,4.8492,3.13219,7.40917,4.2572,3.57276,1.57005,6.34059,4.24105,9.6863,6.02448,2.13663,1.13898,4.17812,2.29017,5.83235,4.0827,2.43616,2.63974,4.88122,5.27269,7.38271,7.85008,1.40116,1.44367,1.65463,3.35084,1.80668,5.09389.22418,2.56955,1.62135,4.40017,2.90667,6.39362.9286,1.44018,1.69161,2.98712,2.70294,4.79893h-9.29428c.22629.78147.29232,1.34212.53971,1.80613,1.07725,2.02114,2.27057,3.98254,3.29421,6.0294.59824,1.19628.95737,2.5123,1.42055,3.77573.0549.14968.076.31192.13207.46108,1.31555,3.50046,1.56434,3.66909,5.36866,3.67076,1.59985.00067,3.19999.02326,4.79954.00272.95813-.01236,1.54793.41066,1.63758,1.3587.11877,1.25596.72756,2.20776,1.50692,3.16964.58348.72006.93199,1.66905,1.24125,2.56571,1.05949,3.07208,2.01791,6.17913,3.08467,9.24863,1.7236,4.95944,3.51516,9.89527,5.24286,14.85325.22758.65291.24832,1.37789.36486,2.06948H50.88776Z"/>
  <g>
    <path class="cls-1" d="m48.79336,541.24707h36.50293c.22949,1.26855.40234,2.45117.51855,3.5459.11523,1.09668.17285,2.13477.17285,3.11426,0,1.90332-.23047,4.18164-.69141,6.83301h-21.19238v10.55371h16.69434c.51855,2.59473.77832,4.84375.77832,6.74609,0,1.96191-.25977,4.23926-.77832,6.83398h-16.69434v24.30566c-3.05762.51953-5.59375.77832-7.61133.77832-2.13477,0-4.70117-.25879-7.69922-.77832v-61.93262Z"/>
    <path class="cls-1" d="m92.90665,541.41992c2.8252-.28809,5.43457-.5625,7.82812-.82227,2.39258-.25879,4.91602-.38867,7.56934-.38867,3.16992,0,6.34277.30273,9.51465.9082,3.16992.60547,5.99609,1.6582,8.47656,3.15723,2.47852,1.5,4.49805,3.5459,6.05469,6.1416,1.55664,2.59473,2.33594,5.88184,2.33594,9.86035,0,2.13477-.24609,4.05176-.73535,5.75195-.49121,1.70215-1.125,3.21582-1.90332,4.54199-.77832,1.32715-1.64355,2.47949-2.59473,3.45996s-1.88965,1.81641-2.81152,2.50781l13.49414,26.6416c-1.38379.23145-2.89746.40332-4.54102.51953-1.64355.11426-3.12891.17285-4.45508.17285-1.1543,0-2.49512-.05859-4.02246-.17285-1.52832-.11621-2.86914-.28809-4.02148-.51953l-12.2832-28.28516.77832-.43262c.69238-.3457,1.45605-.9209,2.29297-1.72949.83496-.80664,1.61328-1.77344,2.33496-2.89746.7207-1.125,1.32617-2.37891,1.81641-3.7627.48926-1.38379.73535-2.8252.73535-4.3252,0-2.88281-.80859-4.9873-2.42188-6.31445-1.61523-1.32617-3.60449-1.98926-5.96875-1.98926-.57715,0-1.06738.0293-1.46973.08594-.4043.05859-.66406.11621-.7793.17383v49.47656c-3.05664.51953-5.56543.77832-7.52441.77832-2.13477,0-4.70117-.25879-7.69922-.77832v-61.75977Z"/>
    <path class="cls-1" d="m178.97208,571.00195c0,2.01953-.25977,4.26855-.77832,6.74707h-16.69434v12.2832h21.71094c.51855,2.42188.77832,4.61426.77832,6.57422,0,2.13379-.25977,4.41113-.77832,6.83301h-37.02148v-62.19238h36.50293c.22949,1.26855.40234,2.45117.51855,3.5459.11523,1.09668.17285,2.13477.17285,3.11426,0,1.90332-.23047,4.18164-.69141,6.83301h-21.19238v9.51562h16.69434c.51855,2.53809.77832,4.78711.77832,6.74609Z"/>
    <path class="cls-1" d="m215.21426,604.39062c-4.6709,0-8.5498-.63477-11.63379-1.90234-3.08594-1.26758-5.52246-3.09961-7.30957-5.49316-1.78809-2.3916-3.04199-5.29004-3.7627-8.69336-.72168-3.40137-1.08105-7.23535-1.08105-11.50391v-35.37793c1.67188-.22949,3.11426-.38965,4.3252-.47559,1.21094-.08691,2.36328-.12988,3.45996-.12988.97949,0,2.06055.04297,3.24316.12988,1.18164.08594,2.6084.24609,4.28223.47559v33.56152c0,2.88379.11426,5.33398.3457,7.35254.22949,2.01855.64844,3.66211,1.25391,4.93066s1.45605,2.17676,2.55176,2.72461c1.09473.54883,2.53711.82129,4.3252.82129,1.78711,0,3.24316-.27246,4.36816-.82129,1.12402-.54785,1.98926-1.45605,2.59473-2.72461s1.00879-2.91211,1.21094-4.93066c.20117-2.01855.30273-4.46875.30273-7.35254v-33.56152c1.73047-.22949,3.18555-.38965,4.36816-.47559,1.18164-.08691,2.2627-.12988,3.24414-.12988,1.03809,0,2.16211.04297,3.37305.12988,1.21094.08594,2.65137.24609,4.3252.47559v35.37793c0,4.26855-.36133,8.10254-1.08105,11.50391-.72168,3.40332-1.97656,6.30176-3.7627,8.69336-1.78809,2.39355-4.22559,4.22559-7.30957,5.49316-3.08496,1.26758-6.96289,1.90234-11.63379,1.90234Z"/>
    <path class="cls-1" d="m249.0336,541.41992c1.26855-.22949,2.42188-.40332,3.45996-.51953,1.03809-.11426,2.04688-.17285,3.02734-.17285,1.03809,0,2.12012.07324,3.24414.2168,1.12402.14453,2.08984.30273,2.89746.47559l20.06738,33.90723v-33.90723c1.49902-.22949,2.85449-.40332,4.06543-.51953,1.21094-.11426,2.30566-.17285,3.28711-.17285.98047,0,2.01758.05859,3.11426.17285,1.09473.11621,2.24902.29004,3.45996.51953l-.08691,61.75977c-.57715.17285-1.41309.34668-2.50781.51953-1.09668.17285-2.2793.25879-3.54688.25879-1.44238,0-2.73926-.10059-3.89258-.30273-1.1543-.20215-1.98926-.35938-2.50781-.47559l-20.1543-33.73438v33.73438c-2.53809.51953-4.84375.77832-6.91992.77832s-4.41113-.25879-7.00684-.77832v-61.75977Z"/>
    <path class="cls-1" d="m323.24942,540.20898c10.89844,0,19.17285,2.72461,24.82422,8.17383s8.47754,13.56738,8.47754,24.34961c0,10.95703-2.88477,18.98633-8.65039,24.08984-5.7666,5.10352-14.30176,7.65527-25.60352,7.65527-2.88379,0-5.66504-.12988-8.34668-.38965-2.68164-.25879-5.31934-.56152-7.91504-.9082v-61.75977c.86523-.11523,1.95996-.24512,3.28711-.38965,1.32617-.14258,2.76855-.27246,4.3252-.38867,1.55664-.11523,3.15723-.2168,4.80078-.30273,1.64355-.08691,3.24316-.12988,4.80078-.12988Zm-1.90332,50.68848c.40234.05762.86523.08594,1.38379.08594h1.64355c2.24902,0,4.36816-.27246,6.35742-.82129,1.98926-.54785,3.70508-1.51367,5.14648-2.89746,1.44141-1.38477,2.58008-3.25781,3.41699-5.62305.83496-2.36328,1.25391-5.3916,1.25391-9.08203,0-3.63281-.43164-6.66016-1.29688-9.08301-.86523-2.42188-2.00488-4.33789-3.41699-5.75195-1.41406-1.41211-3.07031-2.42188-4.97363-3.02734-1.90234-.60547-3.89258-.9082-5.96777-.9082-1.1543,0-1.99023.01465-2.50879.04297-.51953.03027-.86523.04395-1.03809.04395v37.02148Z"/>
    <path class="cls-1" d="m403.60586,603.95801c-2.13477,0-4.70117-.25879-7.69824-.77832v-25.25781h-15.31055v25.25781c-3.05762.51953-5.59375.77832-7.61133.77832-2.13477,0-4.70117-.25879-7.69922-.77832v-61.75977c1.55762-.22949,2.96973-.40332,4.23926-.51953,1.26758-.11426,2.3916-.17285,3.37305-.17285,1.03809,0,2.20605.05859,3.50293.17285,1.29785.11621,2.69531.29004,4.19531.51953v22.92188h15.31055v-22.92188c1.55664-.22949,2.9541-.40332,4.19434-.51953,1.24023-.11426,2.37891-.17285,3.41699-.17285s2.20605.05859,3.50293.17285c1.29785.11621,2.69531.29004,4.19531.51953v61.75977c-3.05664.51953-5.59375.77832-7.61133.77832Z"/>
    <path class="cls-1" d="m431.80215,603.2666c-1.32715.22949-2.53809.40234-3.63281.51855-1.0957.11523-2.16211.17285-3.2002.17285s-2.23535-.07227-3.58984-.21582c-1.35547-.14453-2.86914-.35938-4.54102-.64844l19.375-61.76074c1.49902-.17285,2.89844-.31641,4.19531-.43262,1.29785-.11426,2.6084-.17285,3.93555-.17285,1.09473,0,2.29297.05859,3.58984.17285,1.29785.11621,2.78125.25977,4.45508.43262l19.11621,61.84668c-3.28711.51953-6.17188.77832-8.65039.77832-1.1543,0-2.30664-.05762-3.45996-.17285-1.1543-.11621-2.39355-.28906-3.71875-.51855l-3.28711-12.02344c-1.61523.46191-3.15723.80859-4.62793,1.03809-1.4707.23145-2.92773.3457-4.36816.3457-1.32715,0-2.68164-.09961-4.06543-.30273-1.38379-.20117-2.82617-.50391-4.3252-.9082l-3.2002,11.85059Zm12.10938-45.67188l-5.79492,22.23047c.97949.28906,1.90332.51953,2.76758.69238.86523.17285,1.75879.25879,2.68164.25879.98047,0,1.94629-.07129,2.89746-.21582.95215-.14355,1.94629-.35938,2.98438-.64844l-5.53613-22.31738Z"/>
    <path class="cls-1" d="m501.3461,565.4668c2.42188.98047,4.59766,1.97559,6.53027,2.98438,1.93164,1.00879,3.58984,2.21973,4.97363,3.63281,1.38477,1.41309,2.45117,3.11328,3.20117,5.10352.74805,1.98926,1.12402,4.39746,1.12402,7.22266,0,3.05664-.53418,5.80957-1.59961,8.25977-1.06836,2.45215-2.63867,4.55664-4.71484,6.31445-2.07617,1.75977-4.62695,3.11426-7.65527,4.06543-3.02734.95215-6.50195,1.42773-10.42285,1.42773-3.57617,0-6.7334-.28906-9.47168-.86523-2.73926-.5752-5.69531-1.4707-8.86523-2.68164.22949-2.01758.63379-4.16504,1.21094-6.44336.5752-2.27734,1.26758-4.59863,2.0752-6.96387,5.30566,2.30762,9.91797,3.45996,13.83984,3.45996,2.94141,0,5.2334-.44531,6.87695-1.34082,1.64355-.89258,2.46484-2.43555,2.46484-4.62695,0-.92188-.17285-1.71582-.51855-2.37891-.3457-.66211-.80859-1.22461-1.38379-1.68652-.57715-.46094-1.22656-.85059-1.94629-1.16797-.72168-.31641-1.45703-.61914-2.20605-.9082l-4.84375-1.81641c-2.07617-.74902-3.96582-1.64355-5.66602-2.68164-1.70117-1.03809-3.15723-2.2627-4.36816-3.67676-1.21094-1.41211-2.14844-3.04004-2.81055-4.88672-.66406-1.84473-.99512-4.00781-.99512-6.4873,0-3.05566.51953-5.76562,1.55664-8.13086,1.03809-2.36426,2.49414-4.36816,4.36816-6.01172s4.1377-2.88281,6.79004-3.71973c2.65234-.83496,5.62305-1.25391,8.91016-1.25391,2.94043,0,5.78027.28906,8.51953.86523,2.73828.57715,5.66602,1.41309,8.7793,2.50781-.23047,1.84668-.64844,3.87891-1.25391,6.09863-.60547,2.2207-1.37012,4.31152-2.29199,6.27051-1.5-.63379-3.25879-1.29688-5.27637-1.98926-2.01953-.69141-4.52734-1.03809-7.52539-1.03809-.92285,0-1.80273.08691-2.63867.25977s-1.58594.44727-2.24902.82227-1.19727.89453-1.59961,1.55664c-.4043.66309-.60547,1.48535-.60547,2.46484,0,1.67383.54688,2.91309,1.64355,3.71973,1.09473.80859,2.3916,1.5,3.89258,2.07617l4.15137,1.64355Z"/>
    <path class="cls-1" d="m558.69376,571.00195c0,2.01953-.25977,4.26855-.77832,6.74707h-16.69434v12.2832h21.71094c.51855,2.42188.77832,4.61426.77832,6.57422,0,2.13379-.25977,4.41113-.77832,6.83301h-37.02148v-62.19238h36.50293c.22949,1.26855.40234,2.45117.51855,3.5459.11523,1.09668.17285,2.13477.17285,3.11426,0,1.90332-.23047,4.18164-.69141,6.83301h-21.19238v9.51562h16.69434c.51855,2.53809.77832,4.78711.77832,6.74609Z"/>
  </g>
</svg>